<svg width="172" height="20" viewBox="0 0 172 20" fill="none" xmlns="http://www.w3.org/2000/svg">
<path d="M139.638 18.4575C139.615 18.2975 139.594 18.1431 139.578 17.9903C139.561 17.8346 139.552 17.6781 139.552 17.5215C139.553 17.3611 139.562 17.201 139.578 17.0415C139.594 16.8767 139.615 16.7159 139.638 16.5567C139.798 16.5343 139.954 16.5175 140.106 16.5063C140.258 16.4943 140.415 16.4895 140.574 16.4895C140.732 16.4895 140.894 16.4943 141.049 16.5063C141.204 16.5183 141.369 16.5343 141.529 16.5567C141.552 16.7167 141.572 16.8767 141.589 17.0367C141.622 17.3534 141.622 17.6728 141.589 17.9895C141.572 18.1495 141.552 18.3079 141.529 18.4647C141.369 18.4871 141.214 18.5039 141.062 18.5159C140.91 18.5279 140.752 18.5327 140.594 18.5327C140.435 18.5327 140.274 18.5271 140.114 18.5159C139.954 18.5047 139.796 18.4799 139.638 18.4575Z" fill="white"/>
<path d="M148.601 12.7095C148.63 12.4534 148.599 12.194 148.511 11.9518C148.423 11.7097 148.279 11.4914 148.092 11.3142C147.654 11.0256 147.134 10.8882 146.611 10.923C146.238 10.9214 145.865 10.9528 145.498 11.0166C145.156 11.0781 144.818 11.1604 144.486 11.2631C144.262 10.8517 144.151 10.3881 144.166 9.91987C144.582 9.78794 145.008 9.69131 145.441 9.63105C145.886 9.56436 146.335 9.53014 146.785 9.52865C147.712 9.46361 148.631 9.73896 149.37 10.3031C149.688 10.6265 149.932 11.0153 150.084 11.4424C150.237 11.8696 150.295 12.3248 150.254 12.7767V18.2374C149.858 18.3281 149.375 18.4212 148.808 18.5166C148.235 18.6138 147.655 18.6625 147.074 18.6622C146.568 18.6679 146.063 18.6167 145.569 18.5095C145.159 18.4246 144.771 18.2563 144.429 18.015C144.12 17.7912 143.872 17.4929 143.709 17.1478C143.528 16.7477 143.441 16.3116 143.454 15.8726C143.441 15.4426 143.536 15.0162 143.729 14.6317C143.922 14.2473 144.207 13.9169 144.56 13.6703C144.915 13.4196 145.312 13.235 145.732 13.1254C146.187 13.0054 146.656 12.9457 147.127 12.9478C147.49 12.9478 147.788 12.9551 148.019 12.9719C148.25 12.9887 148.448 13.0087 148.606 13.0319L148.601 12.7095ZM148.601 14.3591C148.432 14.3356 148.216 14.3129 147.954 14.2911C147.694 14.2679 147.474 14.2566 147.292 14.2566C146.729 14.2202 146.168 14.3567 145.684 14.6478C145.499 14.7836 145.351 14.9639 145.255 15.1721C145.158 15.3802 145.116 15.6094 145.132 15.8383C145.117 16.1173 145.182 16.3949 145.319 16.6383C145.435 16.8224 145.596 16.9743 145.786 17.0799C145.979 17.1835 146.191 17.2474 146.409 17.2679C146.635 17.2895 146.85 17.3007 147.055 17.3007C147.325 17.3007 147.594 17.2863 147.862 17.2575C148.112 17.2347 148.359 17.1925 148.602 17.131L148.601 14.3591Z" fill="white"/>
<path d="M152.632 16.8759C153.304 17.1421 154.019 17.2805 154.742 17.2839C154.993 17.2851 155.244 17.2566 155.49 17.1991C155.709 17.1501 155.919 17.0637 156.11 16.9439C156.279 16.8363 156.424 16.694 156.535 16.5263C156.642 16.3623 156.698 16.1701 156.695 15.9743C156.702 15.7796 156.658 15.5865 156.567 15.4143C156.482 15.267 156.366 15.1394 156.228 15.0398C156.074 14.9325 155.908 14.8442 155.734 14.7767C155.546 14.7031 155.345 14.6327 155.13 14.5647L154.534 14.3431C153.948 14.1536 153.408 13.8404 152.953 13.4247C152.783 13.2391 152.653 13.0218 152.568 12.7854C152.483 12.5489 152.446 12.2979 152.459 12.0471C152.445 11.6974 152.512 11.3492 152.655 11.0299C152.798 10.7106 153.013 10.4289 153.284 10.2071C153.989 9.70668 154.846 9.46632 155.708 9.52705C156.145 9.52691 156.581 9.56951 157.01 9.65425C157.388 9.72688 157.76 9.82634 158.124 9.95186C158.1 10.1819 158.057 10.4096 157.996 10.6327C157.937 10.8483 157.86 11.0587 157.766 11.2615C157.473 11.158 157.176 11.0702 156.874 10.9982C156.509 10.9112 156.135 10.8685 155.759 10.871C155.376 10.864 154.996 10.9393 154.645 11.0918C154.493 11.156 154.366 11.2658 154.28 11.4059C154.194 11.546 154.154 11.7095 154.165 11.8735C154.159 12.0461 154.2 12.2169 154.284 12.3679C154.364 12.506 154.473 12.625 154.604 12.7167C154.749 12.8178 154.906 12.9009 155.072 12.9639C155.246 13.0311 155.438 13.0991 155.642 13.1679L156.39 13.423C156.655 13.5099 156.914 13.6169 157.163 13.7431C157.399 13.8613 157.612 14.0194 157.794 14.2103C157.975 14.409 158.119 14.6396 158.218 14.8903C158.423 15.4107 158.454 15.9835 158.308 16.5233C158.161 17.0631 157.843 17.5409 157.402 17.8855C157.063 18.1418 156.679 18.3345 156.271 18.4543C155.796 18.5953 155.303 18.6644 154.808 18.6591C154.329 18.664 153.851 18.627 153.379 18.5487C152.992 18.48 152.611 18.3805 152.239 18.2511C152.263 18.017 152.312 17.7862 152.384 17.5623C152.459 17.3327 152.542 17.0999 152.632 16.8759Z" fill="white"/>
<path d="M161.034 11.0591H159.932C159.907 10.956 159.89 10.8512 159.882 10.7455C159.869 10.6294 159.864 10.5127 159.864 10.3959C159.863 10.2797 159.869 10.1635 159.882 10.0479C159.89 9.94197 159.907 9.83685 159.932 9.73352H162.686V18.4583C162.562 18.4807 162.423 18.4975 162.27 18.5095C162.118 18.5215 161.978 18.5263 161.853 18.5263C161.727 18.5263 161.607 18.5207 161.453 18.5095C161.298 18.4983 161.16 18.4807 161.035 18.4583L161.034 11.0591ZM160.661 7.81033C160.637 7.6642 160.623 7.5167 160.618 7.36873C160.612 7.20873 160.609 7.06682 160.61 6.94309C160.61 6.81909 160.61 6.67752 160.618 6.51912C160.622 6.37667 160.636 6.23471 160.661 6.09431C160.809 6.07111 160.967 6.05431 161.141 6.04231C161.314 6.03031 161.461 6.02551 161.582 6.02551C161.704 6.02551 161.854 6.03191 162.025 6.04231C162.195 6.05271 162.345 6.07111 162.483 6.09431C162.508 6.23464 162.523 6.37664 162.526 6.51912C162.532 6.67912 162.535 6.81909 162.535 6.94309C162.535 7.06709 162.535 7.21033 162.526 7.36873C162.522 7.51673 162.508 7.66427 162.483 7.81033C162.347 7.83353 162.198 7.8495 162.033 7.8615C161.868 7.8735 161.724 7.8783 161.598 7.8783C161.473 7.8783 161.309 7.8727 161.14 7.8615C160.971 7.8503 160.812 7.83353 160.661 7.81033Z" fill="white"/>
<path d="M170.03 12.7095C170.06 12.4534 170.029 12.194 169.941 11.9518C169.853 11.7096 169.709 11.4913 169.522 11.3143C169.084 11.0259 168.564 10.8885 168.042 10.9231C167.668 10.9215 167.295 10.9529 166.927 11.0167C166.585 11.0783 166.247 11.1606 165.914 11.2632C165.691 10.8515 165.581 10.3881 165.594 9.91994C166.011 9.78801 166.437 9.69139 166.87 9.63112C167.315 9.56444 167.764 9.53022 168.214 9.52873C169.141 9.46386 170.06 9.73919 170.799 10.3031C171.116 10.6271 171.359 11.0161 171.511 11.4432C171.663 11.8703 171.72 12.3253 171.679 12.7767V18.2375C171.282 18.3282 170.8 18.4213 170.233 18.5167C169.66 18.6139 169.08 18.6626 168.498 18.6623C167.993 18.6679 167.488 18.6167 166.994 18.5095C166.584 18.4248 166.196 18.2565 165.854 18.0151C165.544 17.7913 165.297 17.493 165.134 17.1479C164.953 16.7477 164.866 16.3117 164.878 15.8727C164.866 15.4427 164.96 15.0164 165.153 14.6319C165.346 14.2475 165.632 13.917 165.984 13.6703C166.339 13.4193 166.737 13.2346 167.158 13.1255C167.613 13.0054 168.082 12.9457 168.553 12.9479C168.915 12.9479 169.212 12.9551 169.445 12.9719C169.678 12.9887 169.873 13.0088 170.03 13.032V12.7095ZM170.03 14.3592C169.862 14.336 169.646 14.3135 169.385 14.2911C169.124 14.2687 168.905 14.2567 168.722 14.2567C168.158 14.2203 167.597 14.3568 167.114 14.6479C166.929 14.7837 166.781 14.964 166.685 15.1721C166.588 15.3803 166.546 15.6095 166.562 15.8384C166.546 16.1174 166.611 16.395 166.749 16.6384C166.865 16.8225 167.026 16.9744 167.216 17.08C167.409 17.1835 167.62 17.2475 167.838 17.2679C168.065 17.2895 168.28 17.3008 168.484 17.3008C168.754 17.3009 169.024 17.2864 169.292 17.2575C169.541 17.2348 169.788 17.1925 170.031 17.1311L170.03 14.3592Z" fill="white"/>
<path d="M6.40961 19.7856L3.31201 13.1184L10.0232 9.99841L6.40961 19.7856Z" fill="#1A1A1A"/>
<path d="M0.192017 6.4071L3.31201 13.1191L10.0232 9.9991L0.192017 6.4071Z" fill="#4C4C4C"/>
<path d="M19.7888 13.5679L16.6912 6.8999L10.0232 9.99912L19.7888 13.5679Z" fill="#A11924"/>
<path d="M13.5936 0.235107L16.6912 6.8999L10.0232 9.99907L13.5936 0.235107Z" fill="#CE0D1D"/>
<path d="M0.192017 6.40713L6.90322 3.28711L10.0232 10.0015L0.192017 6.40713Z" fill="#ECB100"/>
<path d="M13.5936 0.235107L6.92639 3.33188L10.0232 9.9999L13.5936 0.235107Z" fill="#FFDC00"/>
<path d="M6.43201 19.7752L13.1224 16.6664L10.0224 10L6.43201 19.7752Z" fill="#F88113"/>
<path d="M19.7784 13.5455L13.1128 16.6447L10.0248 10.0007L19.7784 13.5455Z" fill="#FF9F15"/>
<path d="M0 14.6559L3.4488 13.0559L4.988 16.3647L0 14.6559Z" fill="#1A1A1A"/>
<path d="M0 14.6552L1.9 9.71997L3.4496 13.0536L0 14.6552Z" fill="#4C4C4C"/>
<path d="M18.1592 10.2455L16.6208 6.93352L19.9808 5.37512L18.1592 10.2455Z" fill="#A11924"/>
<path d="M16.6208 6.93279L15.084 3.62317L19.9776 5.37278L16.6208 6.93279Z" fill="#CE0D1D"/>
<path d="M14.6696 19.9999L13.0024 16.4119L16.2904 14.8839L14.6696 19.9999Z" fill="#FF9F15"/>
<path d="M9.64401 17.9711L13.004 16.4111L14.6712 19.9992L9.64401 17.9711Z" fill="#F88113"/>
<path d="M7.00239 3.49194L5.37839 -0.00244141L10.2888 1.96553L7.00239 3.49194Z" fill="#FFDC00"/>
<path d="M3.62241 5.00562L5.3824 0L6.9824 3.44639L3.62241 5.00562Z" fill="#ECB100"/>
<path d="M29.8104 8.72946H27.7744C27.7277 8.49154 27.6946 8.25113 27.6752 8.00944C27.6581 7.79611 27.6496 7.57268 27.6496 7.33908C27.6496 7.12308 27.6584 6.91667 27.6752 6.71667C27.6949 6.49195 27.728 6.26862 27.7744 6.04787H29.8104V5.42629C29.7982 4.70253 29.9197 3.98269 30.1688 3.30305C30.3908 2.71075 30.7436 2.17619 31.2008 1.73908C31.6608 1.30824 32.2058 0.978255 32.8008 0.770283C33.4594 0.540656 34.1529 0.42723 34.8504 0.435078C35.2688 0.430995 35.6872 0.451536 36.1032 0.49665C36.4778 0.545687 36.848 0.624085 37.2104 0.731074C37.1831 1.22634 37.1297 1.7198 37.0504 2.20944C36.9737 2.65519 36.8532 3.09229 36.6904 3.51428C36.508 3.48068 36.3173 3.44308 36.1184 3.40148C35.8561 3.35446 35.5897 3.3338 35.3232 3.33986C34.8195 3.318 34.3226 3.46219 33.9088 3.75026C33.6906 3.98279 33.5245 4.25924 33.4218 4.5611C33.319 4.86297 33.2818 5.18328 33.3128 5.50065V6.04709H36.2936C36.3396 6.2851 36.3724 6.52544 36.392 6.76706C36.408 6.98226 36.4176 7.20629 36.4176 7.43669C36.4176 7.65189 36.408 7.85985 36.392 8.05905C36.3721 8.28396 36.3393 8.50756 36.2936 8.72868H33.3128V18.8847C32.7387 18.9823 32.1575 19.0323 31.5752 19.0342C30.9854 19.0328 30.3968 18.9828 29.8152 18.8847L29.8104 8.72946Z" fill="white"/>
<path d="M42.996 19.1831C42.0639 19.2045 41.1376 19.0315 40.276 18.6752C39.5379 18.3587 38.8839 17.8741 38.3664 17.2599C37.8494 16.6342 37.461 15.9128 37.2232 15.1367C36.9603 14.2847 36.8303 13.3972 36.8376 12.5055C36.8312 11.6055 36.9612 10.7098 37.2232 9.84875C37.4563 9.06355 37.8451 8.33329 38.3664 7.70153C38.885 7.08494 39.5383 6.59582 40.276 6.27194C41.1352 5.90621 42.0625 5.7281 42.996 5.74953C43.9328 5.72884 44.8634 5.9069 45.7264 6.27194C46.4721 6.59587 47.1345 7.08465 47.664 7.70153C48.19 8.32992 48.5788 9.06131 48.8056 9.84875C49.0584 10.7115 49.1838 11.6065 49.1776 12.5055C49.1847 13.3962 49.0593 14.283 48.8056 15.1367C48.5741 15.915 48.1856 16.6376 47.664 17.2599C47.1355 17.8744 46.4725 18.3587 45.7264 18.6752C44.861 19.0308 43.9314 19.2037 42.996 19.1831ZM42.996 16.5024C43.3923 16.5339 43.7896 16.4541 44.143 16.2718C44.4964 16.0896 44.7918 15.8123 44.996 15.4712C45.3979 14.5337 45.6051 13.5243 45.6051 12.5044C45.6051 11.4844 45.3979 10.475 44.996 9.53757C44.7716 9.21947 44.4741 8.95988 44.1285 8.78073C43.7829 8.60158 43.3993 8.50808 43.01 8.50808C42.6207 8.50808 42.2371 8.60158 41.8915 8.78073C41.5459 8.95988 41.2484 9.21947 41.024 9.53757C40.6228 10.4752 40.4159 11.4845 40.4159 12.5044C40.4159 13.5242 40.6228 14.5335 41.024 15.4712C41.2243 15.8094 41.5149 16.0851 41.8633 16.2673C42.2117 16.4495 42.6039 16.5309 42.996 16.5024Z" fill="white"/>
<path d="M50.74 6.04951C51.907 5.85016 53.0994 5.85016 54.2664 6.04951V12.8495C54.2542 13.4125 54.3079 13.975 54.4264 14.5255C54.5075 14.9065 54.6778 15.263 54.9232 15.5655C55.1445 15.8204 55.4319 16.0092 55.7536 16.1111C56.1323 16.2245 56.5263 16.2784 56.9216 16.2711C57.4401 16.2823 57.9578 16.2239 58.4608 16.0975V6.04951C59.0351 5.95158 59.6166 5.90153 60.1992 5.8999C60.789 5.90101 61.3777 5.95105 61.9592 6.04951V18.3895C61.2715 18.6119 60.5704 18.7901 59.86 18.9231C58.9642 19.0995 58.053 19.1869 57.14 19.1839C56.3244 19.1861 55.5101 19.1197 54.7056 18.9855C53.9662 18.8682 53.2646 18.5795 52.6568 18.1423C52.026 17.6524 51.5409 16.9996 51.2536 16.2543C50.8675 15.1977 50.6903 14.0761 50.732 12.9519L50.74 6.04951Z" fill="white"/>
<path d="M64.1728 6.04955C64.4224 5.99835 64.6528 5.96234 64.8816 5.93754C65.1104 5.91274 65.5704 5.89994 65.8328 5.89994C66.0787 5.89984 66.3243 5.91642 66.568 5.94955C66.808 5.98315 67.2768 6.02394 67.5096 6.07274C67.5576 6.15754 67.4296 7.77034 67.452 7.88554C67.826 7.36086 68.2782 6.89654 68.7928 6.50873C69.3674 6.08839 70.0669 5.87394 70.7784 5.89994C70.9448 5.89994 71.1352 5.90874 71.3504 5.92314C71.5099 5.93112 71.6681 5.95608 71.8224 5.99755C71.8572 6.18704 71.8821 6.37825 71.8968 6.57035C71.9128 6.78635 71.9224 7.00956 71.9224 7.24076C71.9224 7.51996 71.9096 7.82715 71.8832 8.15995C71.8606 8.47664 71.8154 8.79131 71.748 9.10155C71.547 9.06842 71.3437 9.05212 71.14 9.05277H70.7296C70.4133 9.05562 70.0978 9.08474 69.7864 9.13993C69.4218 9.2056 69.08 9.36339 68.7936 9.59833C68.4417 9.89914 68.1722 10.2846 68.0104 10.7184C67.7763 11.3875 67.671 12.0949 67.7 12.8032V18.9112C67.4024 18.9608 67.1048 18.9912 66.8064 19.012C66.508 19.0328 66.2192 19.0359 65.9376 19.0359C65.656 19.0359 65.3704 19.0264 65.0816 19.012C64.7928 18.9976 64.4896 18.9608 64.1736 18.9112L64.1728 6.04955Z" fill="white"/>
<path d="M74.668 8.73027H73.0536L78.1448 2.29907V6.04946H81.148C81.1923 6.27054 81.2252 6.49377 81.2464 6.71826C81.2624 6.91826 81.272 7.12467 81.272 7.34067C81.272 7.57267 81.2624 7.79588 81.2464 8.01108C81.2304 8.22628 81.1968 8.46625 81.148 8.73105H78.1416V13.771C78.1306 14.1885 78.1723 14.6056 78.2656 15.0126C78.3272 15.2848 78.4498 15.5395 78.624 15.7575C78.7778 15.9372 78.9817 16.0669 79.2096 16.1303C79.4766 16.2002 79.752 16.2333 80.028 16.2287C80.273 16.2294 80.5177 16.2088 80.7592 16.1671C80.9992 16.1263 81.2112 16.0871 81.3928 16.0567C81.5097 16.3739 81.5937 16.7023 81.6432 17.0367C81.6884 17.3367 81.7124 17.6396 81.7152 17.9431C81.7152 18.1263 81.7152 18.2783 81.704 18.4039C81.6928 18.5295 81.6832 18.6438 81.6672 18.7646C80.8941 18.947 80.1023 19.0386 79.308 19.0375C78.0659 19.1228 76.836 18.7465 75.8544 17.9807C75.4214 17.5258 75.0911 16.9833 74.8857 16.3899C74.6804 15.7964 74.6047 15.1659 74.664 14.5407L74.668 8.73027Z" fill="white"/>
<path d="M84.5264 8.7303H82.8616C82.8103 8.5051 82.7732 8.27692 82.7504 8.04709C82.7253 7.81997 82.713 7.59162 82.7136 7.36311C82.7123 6.92079 82.7617 6.47978 82.8608 6.04871H87.9808V18.8855C87.4062 18.983 86.8244 19.033 86.2416 19.0351C85.6678 19.0323 85.0952 18.9823 84.5296 18.8855L84.5264 8.7303Z" fill="white"/>
<path d="M90.5472 8.73027H88.9312L94.0224 2.29907V6.04946H97.0272C97.072 6.27053 97.1054 6.49376 97.1272 6.71826C97.144 6.91826 97.1512 7.12467 97.1512 7.34067C97.1512 7.57267 97.144 7.79588 97.1272 8.01108C97.1104 8.22628 97.0768 8.46625 97.0272 8.73105H94.0232V13.771C94.0125 14.1884 94.0539 14.6055 94.1464 15.0126C94.2079 15.2855 94.3316 15.5404 94.508 15.7575C94.6611 15.9369 94.8641 16.0667 95.0912 16.1303C95.3585 16.2002 95.6341 16.2333 95.9104 16.2287C96.1555 16.2295 96.4001 16.2089 96.6416 16.1671L97.276 16.0567C97.3933 16.3737 97.4767 16.7021 97.5248 17.0367C97.5709 17.3367 97.5955 17.6396 97.5984 17.9431C97.5984 18.1263 97.5984 18.2783 97.5864 18.4039C97.5744 18.5295 97.5664 18.6438 97.5496 18.7646C96.7767 18.9469 95.9853 19.0385 95.1912 19.0375C93.9493 19.1232 92.7196 18.7468 91.7384 17.9807C90.9427 17.2761 90.5459 16.1295 90.548 14.5407L90.5472 8.73027Z" fill="white"/>
<path d="M99.4832 6.04951C100.648 5.85056 101.838 5.85056 103.003 6.04951V12.8495C102.99 13.4125 103.044 13.9751 103.163 14.5255C103.244 14.9068 103.414 15.2634 103.66 15.5655C103.881 15.8204 104.169 16.0092 104.49 16.1111C104.869 16.2244 105.262 16.2784 105.657 16.2711C106.176 16.2825 106.694 16.2241 107.197 16.0975V6.04951C107.771 5.95149 108.352 5.90145 108.934 5.8999C109.524 5.90084 110.113 5.95088 110.694 6.04951V18.3895C110.008 18.6118 109.307 18.79 108.598 18.9231C107.702 19.0994 106.791 19.1868 105.878 19.1839C105.062 19.1859 104.248 19.1195 103.444 18.9855C102.705 18.8679 102.004 18.5792 101.396 18.1423C100.764 17.6534 100.279 17.0002 99.9936 16.2543C99.607 15.1978 99.4299 14.0761 99.472 12.9519L99.4832 6.04951Z" fill="white"/>
<path d="M121.11 0.73269C121.407 0.68389 121.702 0.652672 121.99 0.633472C122.279 0.614272 122.566 0.609497 122.847 0.609497C123.129 0.609497 123.419 0.619072 123.717 0.633472C124.014 0.647872 124.313 0.68389 124.612 0.73269V18.4631C123.834 18.6944 123.042 18.8726 122.24 18.9967C121.273 19.1316 120.298 19.1937 119.322 19.1823C118.469 19.1853 117.62 19.0646 116.802 18.8239C116.022 18.5953 115.299 18.2061 114.678 17.6815C114.044 17.1285 113.547 16.4356 113.226 15.6575C112.539 13.824 112.513 11.8083 113.152 9.95749C113.44 9.15277 113.887 8.41431 114.467 7.78625C115.052 7.1646 115.758 6.66985 116.542 6.33269C117.397 5.96842 118.319 5.78668 119.248 5.7991C119.546 5.7991 119.857 5.81163 120.179 5.83669C120.494 5.8608 120.806 5.91433 121.11 5.99665V0.73269ZM121.11 8.70388C120.844 8.63526 120.575 8.58183 120.302 8.54387C120.043 8.51638 119.781 8.50408 119.52 8.50706C119.024 8.49518 118.533 8.61003 118.094 8.8407C117.695 9.05865 117.35 9.36412 117.086 9.73425C116.81 10.1319 116.613 10.579 116.505 11.0511C116.38 11.5671 116.318 12.0962 116.319 12.6271C116.305 13.2119 116.389 13.795 116.566 14.3527C116.703 14.7769 116.937 15.1638 117.249 15.4831C117.54 15.7645 117.893 15.9731 118.28 16.0919C118.699 16.2177 119.135 16.2801 119.572 16.2767C119.829 16.2784 120.085 16.2659 120.341 16.2391C120.602 16.2083 120.86 16.1547 121.111 16.0791L121.11 8.70388Z" fill="white"/>
<path d="M129.826 13.5487C129.822 13.9645 129.914 14.3756 130.094 14.7503C130.274 15.1249 130.539 15.4529 130.866 15.7087C131.605 16.1851 132.473 16.419 133.351 16.3775C133.93 16.3772 134.507 16.3237 135.076 16.2175C135.647 16.1149 136.208 15.9615 136.752 15.7591C136.953 16.1376 137.112 16.5374 137.225 16.9511C137.36 17.4365 137.435 17.9369 137.446 18.4407C136.048 18.9563 134.567 19.2089 133.077 19.1855C132.033 19.21 130.993 19.0419 130.01 18.6895C129.218 18.3982 128.505 17.9265 127.926 17.3119C127.379 16.7091 126.972 15.9924 126.734 15.2135C126.216 13.4791 126.22 11.6303 126.746 9.89831C126.991 9.10651 127.392 8.37195 127.926 7.7383C128.458 7.11768 129.119 6.62142 129.863 6.28468C130.712 5.91165 131.632 5.72897 132.558 5.74948C133.377 5.73514 134.19 5.89636 134.941 6.22228C135.617 6.5224 136.223 6.96248 136.717 7.51349C137.216 8.07965 137.593 8.74361 137.822 9.4631C138.074 10.2446 138.2 11.0617 138.194 11.8831C138.194 12.1975 138.182 12.5087 138.157 12.8143C138.132 13.1199 138.102 13.3663 138.07 13.5487H129.826ZM134.866 11.0879C134.867 10.3911 134.635 9.71409 134.207 9.16388C133.999 8.9198 133.737 8.72694 133.442 8.60016C133.147 8.47338 132.826 8.41607 132.506 8.43268C132.16 8.40857 131.814 8.45815 131.489 8.57814C131.164 8.69813 130.868 8.88579 130.622 9.12868C130.153 9.67777 129.882 10.3677 129.851 11.0887L134.866 11.0879Z" fill="white"/>
<path d="M87.728 1.39109C87.712 1.11225 87.6789 0.834656 87.6288 0.559888C87.3488 0.510288 87.0424 0.472943 86.7096 0.447876C86.4072 0.425476 86.1256 0.412678 85.8632 0.410278H85.8424C85.58 0.410278 85.2984 0.425476 84.9944 0.447876C84.664 0.473476 84.3544 0.510288 84.076 0.559888C84.0268 0.834791 83.9937 1.11233 83.9768 1.39109C83.9608 1.66389 83.9504 1.94232 83.9504 2.22312C83.9504 2.48872 83.9608 2.7615 83.9768 3.0407C83.9931 3.32454 84.0262 3.60716 84.076 3.88708C84.3761 3.93865 84.679 3.97156 84.9832 3.98552C85.2877 4.00206 85.5741 4.01028 85.8424 4.01028H85.8632C86.132 4.01028 86.4184 4.00232 86.7232 3.98552C87.0265 3.97164 87.3287 3.93874 87.628 3.88708C87.6786 3.60729 87.7118 3.32462 87.7272 3.0407C87.7448 2.76123 87.7536 2.48872 87.7536 2.22312C87.7528 1.94392 87.7456 1.66549 87.728 1.39109Z" fill="white"/>
</svg>
